<svg width="102" height="25" viewBox="0 0 102 25" fill="none" xmlns="http://www.w3.org/2000/svg">
<rect x="0.586914" y="0.00195312" width="24" height="24" rx="5" fill="#F2F1FA"/>
<path d="M6.58691 7.61516C6.58691 7.23035 6.72205 6.91289 6.99232 6.66278C7.26259 6.41265 7.61394 6.2876 8.04637 6.2876C8.47109 6.2876 8.81471 6.41073 9.07726 6.65701C9.34753 6.91097 9.48267 7.24189 9.48267 7.64979C9.48267 8.0192 9.3514 8.32703 9.08884 8.57331C8.81858 8.82728 8.46336 8.95426 8.02321 8.95426H8.01162C7.58691 8.95426 7.24329 8.82728 6.98074 8.57331C6.71818 8.31934 6.58691 7.99995 6.58691 7.61516ZM6.73749 17.7162V10.0048H9.30892V17.7162H6.73749ZM10.7336 17.7162H13.3051V13.4102C13.3051 13.1409 13.336 12.9331 13.3977 12.7869C13.5058 12.5252 13.6699 12.3039 13.89 12.1231C14.1101 11.9422 14.3861 11.8518 14.7182 11.8518C15.5831 11.8518 16.0155 12.4329 16.0155 13.595V17.7162H18.5869V13.2948C18.5869 12.1558 18.3166 11.2919 17.7761 10.7032C17.2356 10.1144 16.5213 9.82006 15.6332 9.82006C14.6371 9.82006 13.861 10.2472 13.3051 11.1014V11.1245H13.2935L13.3051 11.1014V10.0048H10.7336C10.7491 10.251 10.7568 11.0168 10.7568 12.302C10.7568 13.5873 10.7491 15.392 10.7336 17.7162Z" fill="#555555"/>
<path d="M34.1591 18.002V5.40195H35.6711V16.796H41.5391V18.002H34.1591ZM44.4442 7.09395C44.1442 7.09395 43.8922 6.99795 43.6882 6.80595C43.4962 6.60195 43.4002 6.34995 43.4002 6.04995C43.4002 5.76195 43.4962 5.52195 43.6882 5.32995C43.8922 5.13795 44.1442 5.04195 44.4442 5.04195C44.7322 5.04195 44.9782 5.13795 45.1822 5.32995C45.3862 5.52195 45.4882 5.76195 45.4882 6.04995C45.4882 6.34995 45.3862 6.60195 45.1822 6.80595C44.9782 6.99795 44.7322 7.09395 44.4442 7.09395ZM43.6882 18.002V9.07395H45.2002V18.002H43.6882ZM47.8328 18.002V9.07395H49.2008L49.2908 10.676C49.5788 10.112 49.9928 9.66795 50.5328 9.34395C51.0728 9.01995 51.6848 8.85795 52.3688 8.85795C53.4248 8.85795 54.2648 9.18195 54.8888 9.82995C55.5248 10.466 55.8428 11.45 55.8428 12.782V18.002H54.3308V12.944C54.3308 11.084 53.5628 10.154 52.0268 10.154C51.2588 10.154 50.6168 10.436 50.1008 11C49.5968 11.552 49.3448 12.344 49.3448 13.376V18.002H47.8328ZM58.1336 18.002V5.04195H59.6456V12.836L63.2996 9.07395H65.1536L61.1936 13.106L65.6576 18.002H63.7316L59.6456 13.376V18.002H58.1336ZM70.5675 18.218C69.7155 18.218 68.9595 18.026 68.2995 17.642C67.6395 17.246 67.1175 16.7 66.7335 16.004C66.3615 15.308 66.1755 14.486 66.1755 13.538C66.1755 12.602 66.3615 11.786 66.7335 11.09C67.1055 10.382 67.6215 9.83595 68.2815 9.45195C68.9535 9.05595 69.7275 8.85795 70.6035 8.85795C71.4675 8.85795 72.2115 9.05595 72.8355 9.45195C73.4715 9.83595 73.9575 10.346 74.2935 10.982C74.6295 11.618 74.7975 12.302 74.7975 13.034C74.7975 13.166 74.7915 13.298 74.7795 13.43C74.7795 13.562 74.7795 13.712 74.7795 13.88H67.6695C67.7055 14.564 67.8615 15.134 68.1375 15.59C68.4255 16.034 68.7795 16.37 69.1995 16.598C69.6315 16.826 70.0875 16.94 70.5675 16.94C71.1915 16.94 71.7135 16.796 72.1335 16.508C72.5535 16.22 72.8595 15.83 73.0515 15.338H74.5455C74.3055 16.166 73.8435 16.856 73.1595 17.408C72.4875 17.948 71.6235 18.218 70.5675 18.218ZM70.5675 10.136C69.8475 10.136 69.2055 10.358 68.6415 10.802C68.0895 11.234 67.7715 11.87 67.6875 12.71H73.3035C73.2675 11.906 72.9915 11.276 72.4755 10.82C71.9595 10.364 71.3235 10.136 70.5675 10.136ZM80.8516 18.218C79.9636 18.218 79.1836 18.014 78.5116 17.606C77.8516 17.198 77.3356 16.64 76.9636 15.932C76.6036 15.224 76.4236 14.42 76.4236 13.52C76.4236 12.62 76.6096 11.822 76.9816 11.126C77.3536 10.418 77.8696 9.86595 78.5296 9.46995C79.1896 9.06195 79.9696 8.85795 80.8696 8.85795C81.6016 8.85795 82.2496 9.00795 82.8136 9.30795C83.3776 9.60795 83.8156 10.028 84.1276 10.568V5.04195H85.6396V18.002H84.2716L84.1276 16.526C83.8396 16.958 83.4256 17.348 82.8856 17.696C82.3456 18.044 81.6676 18.218 80.8516 18.218ZM81.0136 16.904C81.6136 16.904 82.1416 16.766 82.5976 16.49C83.0656 16.202 83.4256 15.806 83.6776 15.302C83.9416 14.798 84.0736 14.21 84.0736 13.538C84.0736 12.866 83.9416 12.278 83.6776 11.774C83.4256 11.27 83.0656 10.88 82.5976 10.604C82.1416 10.316 81.6136 10.172 81.0136 10.172C80.4256 10.172 79.8976 10.316 79.4296 10.604C78.9736 10.88 78.6136 11.27 78.3496 11.774C78.0976 12.278 77.9716 12.866 77.9716 13.538C77.9716 14.21 78.0976 14.798 78.3496 15.302C78.6136 15.806 78.9736 16.202 79.4296 16.49C79.8976 16.766 80.4256 16.904 81.0136 16.904ZM88.1943 18.002V5.40195H89.7063V18.002H88.1943ZM92.2879 18.002V9.07395H93.6559L93.7459 10.676C94.0339 10.112 94.4479 9.66795 94.9879 9.34395C95.5279 9.01995 96.1399 8.85795 96.8239 8.85795C97.8799 8.85795 98.7199 9.18195 99.3439 9.82995C99.9799 10.466 100.298 11.45 100.298 12.782V18.002H98.7859V12.944C98.7859 11.084 98.0179 10.154 96.4819 10.154C95.7139 10.154 95.0719 10.436 94.5559 11C94.0519 11.552 93.7999 12.344 93.7999 13.376V18.002H92.2879Z" fill="white"/>
</svg>
