<svg width="114" height="25" viewBox="0 0 114 25" fill="none" xmlns="http://www.w3.org/2000/svg">
<rect x="0.586914" y="0.00195312" width="24" height="24" rx="5" fill="#F2F1FA"/>
<path d="M13.5628 18.002V12.5282H15.4926L15.7816 10.395H13.5628V9.03297C13.5628 8.41535 13.7429 7.99448 14.6732 7.99448L15.8597 7.99395V6.086C15.6545 6.06005 14.9501 6.00195 14.1308 6.00195C12.4201 6.00195 11.249 6.99607 11.249 8.82177V10.395H9.31421V12.5282H11.249V18.0019H13.5628V18.002Z" fill="#555555"/>
<path d="M33.9541 18.002V5.40195H41.6221V6.64395H35.4661V11.072H40.7041V12.296H35.4661V18.002H33.9541ZM45.8341 18.218C45.0901 18.218 44.4721 18.092 43.9801 17.84C43.4881 17.588 43.1221 17.252 42.8821 16.832C42.6421 16.412 42.5221 15.956 42.5221 15.464C42.5221 14.552 42.8701 13.85 43.5661 13.358C44.2621 12.866 45.2101 12.62 46.4101 12.62H48.8221V12.512C48.8221 11.732 48.6181 11.144 48.2101 10.748C47.8021 10.34 47.2561 10.136 46.5721 10.136C45.9841 10.136 45.4741 10.286 45.0421 10.586C44.6221 10.874 44.3581 11.3 44.2501 11.864H42.7021C42.7621 11.216 42.9781 10.67 43.3501 10.226C43.7341 9.78195 44.2081 9.44595 44.7721 9.21795C45.3361 8.97795 45.9361 8.85795 46.5721 8.85795C47.8201 8.85795 48.7561 9.19395 49.3801 9.86595C50.0161 10.526 50.3341 11.408 50.3341 12.512V18.002H48.9841L48.8941 16.4C48.6421 16.904 48.2701 17.336 47.7781 17.696C47.2981 18.044 46.6501 18.218 45.8341 18.218ZM46.0681 16.94C46.6441 16.94 47.1361 16.79 47.5441 16.49C47.9641 16.19 48.2821 15.8 48.4981 15.32C48.7141 14.84 48.8221 14.336 48.8221 13.808V13.79H46.5361C45.6481 13.79 45.0181 13.946 44.6461 14.258C44.2861 14.558 44.1061 14.936 44.1061 15.392C44.1061 15.86 44.2741 16.238 44.6101 16.526C44.9581 16.802 45.4441 16.94 46.0681 16.94ZM56.7064 18.218C55.8544 18.218 55.0864 18.026 54.4024 17.642C53.7304 17.246 53.1964 16.7 52.8004 16.004C52.4164 15.296 52.2244 14.474 52.2244 13.538C52.2244 12.602 52.4164 11.786 52.8004 11.09C53.1964 10.382 53.7304 9.83595 54.4024 9.45195C55.0864 9.05595 55.8544 8.85795 56.7064 8.85795C57.7624 8.85795 58.6504 9.13395 59.3704 9.68595C60.1024 10.238 60.5644 10.976 60.7564 11.9H59.2084C59.0884 11.348 58.7944 10.922 58.3264 10.622C57.8584 10.31 57.3124 10.154 56.6884 10.154C56.1844 10.154 55.7104 10.28 55.2664 10.532C54.8224 10.784 54.4624 11.162 54.1864 11.666C53.9104 12.17 53.7724 12.794 53.7724 13.538C53.7724 14.282 53.9104 14.906 54.1864 15.41C54.4624 15.914 54.8224 16.298 55.2664 16.562C55.7104 16.814 56.1844 16.94 56.6884 16.94C57.3124 16.94 57.8584 16.79 58.3264 16.49C58.7944 16.178 59.0884 15.74 59.2084 15.176H60.7564C60.5764 16.076 60.1204 16.808 59.3884 17.372C58.6564 17.936 57.7624 18.218 56.7064 18.218ZM66.882 18.218C66.03 18.218 65.274 18.026 64.614 17.642C63.954 17.246 63.432 16.7 63.048 16.004C62.676 15.308 62.49 14.486 62.49 13.538C62.49 12.602 62.676 11.786 63.048 11.09C63.42 10.382 63.936 9.83595 64.596 9.45195C65.268 9.05595 66.042 8.85795 66.918 8.85795C67.782 8.85795 68.526 9.05595 69.15 9.45195C69.786 9.83595 70.272 10.346 70.608 10.982C70.944 11.618 71.112 12.302 71.112 13.034C71.112 13.166 71.106 13.298 71.094 13.43C71.094 13.562 71.094 13.712 71.094 13.88H63.984C64.02 14.564 64.176 15.134 64.452 15.59C64.74 16.034 65.094 16.37 65.514 16.598C65.946 16.826 66.402 16.94 66.882 16.94C67.506 16.94 68.028 16.796 68.448 16.508C68.868 16.22 69.174 15.83 69.366 15.338H70.86C70.62 16.166 70.158 16.856 69.474 17.408C68.802 17.948 67.938 18.218 66.882 18.218ZM66.882 10.136C66.162 10.136 65.52 10.358 64.956 10.802C64.404 11.234 64.086 11.87 64.002 12.71H69.618C69.582 11.906 69.306 11.276 68.79 10.82C68.274 10.364 67.638 10.136 66.882 10.136ZM77.886 18.218C77.154 18.218 76.5 18.068 75.924 17.768C75.36 17.468 74.928 17.048 74.628 16.508L74.484 18.002H73.116V5.04195H74.628V10.55C74.916 10.118 75.324 9.72795 75.852 9.37995C76.392 9.03195 77.076 8.85795 77.904 8.85795C78.792 8.85795 79.566 9.06195 80.226 9.46995C80.886 9.87795 81.396 10.436 81.756 11.144C82.128 11.852 82.314 12.656 82.314 13.556C82.314 14.456 82.128 15.26 81.756 15.968C81.396 16.664 80.88 17.216 80.208 17.624C79.548 18.02 78.774 18.218 77.886 18.218ZM77.724 16.904C78.324 16.904 78.852 16.766 79.308 16.49C79.764 16.202 80.124 15.806 80.388 15.302C80.652 14.798 80.784 14.21 80.784 13.538C80.784 12.866 80.652 12.278 80.388 11.774C80.124 11.27 79.764 10.88 79.308 10.604C78.852 10.316 78.324 10.172 77.724 10.172C77.124 10.172 76.596 10.316 76.14 10.604C75.684 10.88 75.324 11.27 75.06 11.774C74.796 12.278 74.664 12.866 74.664 13.538C74.664 14.21 74.796 14.798 75.06 15.302C75.324 15.806 75.684 16.202 76.14 16.49C76.596 16.766 77.124 16.904 77.724 16.904ZM88.4868 18.218C87.6468 18.218 86.8908 18.026 86.2188 17.642C85.5468 17.258 85.0128 16.718 84.6168 16.022C84.2328 15.314 84.0408 14.486 84.0408 13.538C84.0408 12.59 84.2388 11.768 84.6348 11.072C85.0308 10.364 85.5648 9.81795 86.2368 9.43395C86.9208 9.04995 87.6828 8.85795 88.5228 8.85795C89.3628 8.85795 90.1188 9.04995 90.7908 9.43395C91.4628 9.81795 91.9908 10.364 92.3748 11.072C92.7708 11.768 92.9688 12.59 92.9688 13.538C92.9688 14.486 92.7708 15.314 92.3748 16.022C91.9788 16.718 91.4388 17.258 90.7548 17.642C90.0828 18.026 89.3268 18.218 88.4868 18.218ZM88.4868 16.922C89.0028 16.922 89.4828 16.796 89.9268 16.544C90.3708 16.292 90.7308 15.914 91.0068 15.41C91.2828 14.906 91.4208 14.282 91.4208 13.538C91.4208 12.794 91.2828 12.17 91.0068 11.666C90.7428 11.162 90.3888 10.784 89.9448 10.532C89.5008 10.28 89.0268 10.154 88.5228 10.154C88.0068 10.154 87.5268 10.28 87.0828 10.532C86.6388 10.784 86.2788 11.162 86.0028 11.666C85.7268 12.17 85.5888 12.794 85.5888 13.538C85.5888 14.282 85.7268 14.906 86.0028 15.41C86.2788 15.914 86.6328 16.292 87.0648 16.544C87.5088 16.796 87.9828 16.922 88.4868 16.922ZM99.1391 18.218C98.2991 18.218 97.5431 18.026 96.8711 17.642C96.1991 17.258 95.6651 16.718 95.2691 16.022C94.8851 15.314 94.6931 14.486 94.6931 13.538C94.6931 12.59 94.8911 11.768 95.2871 11.072C95.6831 10.364 96.2171 9.81795 96.8891 9.43395C97.5731 9.04995 98.3351 8.85795 99.1751 8.85795C100.015 8.85795 100.771 9.04995 101.443 9.43395C102.115 9.81795 102.643 10.364 103.027 11.072C103.423 11.768 103.621 12.59 103.621 13.538C103.621 14.486 103.423 15.314 103.027 16.022C102.631 16.718 102.091 17.258 101.407 17.642C100.735 18.026 99.9791 18.218 99.1391 18.218ZM99.1391 16.922C99.6551 16.922 100.135 16.796 100.579 16.544C101.023 16.292 101.383 15.914 101.659 15.41C101.935 14.906 102.073 14.282 102.073 13.538C102.073 12.794 101.935 12.17 101.659 11.666C101.395 11.162 101.041 10.784 100.597 10.532C100.153 10.28 99.6791 10.154 99.1751 10.154C98.6591 10.154 98.1791 10.28 97.7351 10.532C97.2911 10.784 96.9311 11.162 96.6551 11.666C96.3791 12.17 96.2411 12.794 96.2411 13.538C96.2411 14.282 96.3791 14.906 96.6551 15.41C96.9311 15.914 97.2851 16.292 97.7171 16.544C98.1611 16.796 98.6351 16.922 99.1391 16.922ZM105.723 18.002V5.04195H107.235V12.836L110.889 9.07395H112.743L108.783 13.106L113.247 18.002H111.321L107.235 13.376V18.002H105.723Z" fill="white"/>
</svg>
