<svg width="91" height="25" viewBox="0 0 91 25" fill="none" xmlns="http://www.w3.org/2000/svg">
<rect x="0.586914" y="0.00195312" width="24" height="24" rx="5" fill="#F2F1FA"/>
<path d="M14.6049 7.13595V7.13379H15.1676L15.3732 7.17485C15.5103 7.20151 15.6347 7.23644 15.7465 7.27966C15.8583 7.32289 15.9665 7.37332 16.0711 7.43094C16.1757 7.48857 16.2706 7.54729 16.3557 7.60707C16.4401 7.66615 16.5159 7.72882 16.583 7.79509C16.6493 7.86209 16.7528 7.87938 16.8935 7.84696C17.0342 7.81454 17.1857 7.76952 17.348 7.71189C17.5103 7.65426 17.6708 7.58943 17.8295 7.51739C17.9882 7.44535 18.0849 7.39961 18.1195 7.38016C18.1534 7.35999 18.1714 7.34919 18.1736 7.34774L18.1757 7.3445L18.1866 7.3391L18.1974 7.33369L18.2082 7.32829L18.219 7.32289L18.2212 7.31965L18.2244 7.31748L18.2277 7.31532L18.2298 7.31208L18.2407 7.30884L18.2515 7.30668L18.2493 7.32289L18.2461 7.3391L18.2407 7.3553L18.2352 7.37151L18.2298 7.38232L18.2244 7.39312L18.219 7.40933C18.2154 7.42014 18.2118 7.43454 18.2082 7.45255C18.2046 7.47057 18.1703 7.5426 18.1054 7.66867C18.0405 7.79474 17.9593 7.9226 17.8619 8.05227C17.7646 8.18193 17.6773 8.2799 17.6001 8.34618C17.5222 8.41317 17.4706 8.45999 17.4453 8.48665C17.4201 8.51402 17.3894 8.53923 17.3534 8.56229L17.2993 8.59795L17.2884 8.60335L17.2776 8.60875L17.2755 8.612L17.2722 8.61416L17.269 8.61632L17.2668 8.61956L17.256 8.62496L17.2452 8.63037L17.243 8.63361L17.2398 8.63577L17.2365 8.63793L17.2343 8.64117L17.2322 8.64441L17.2289 8.64657L17.2257 8.64873L17.2235 8.65198H17.2776L17.5806 8.58714C17.7826 8.54392 17.9756 8.4917 18.1595 8.43046L18.4517 8.33321L18.4841 8.32241L18.5003 8.317L18.5112 8.3116L18.522 8.3062L18.5328 8.30079L18.5436 8.29539L18.5653 8.29215L18.5869 8.28999V8.3116L18.5815 8.31376L18.5761 8.317L18.5739 8.32024L18.5707 8.32241L18.5674 8.32457L18.5653 8.32781L18.5631 8.33105L18.5599 8.33321L18.5566 8.33537L18.5545 8.33861L18.5523 8.34186L18.549 8.34402L18.5436 8.35482L18.5382 8.36563L18.535 8.36779C18.5335 8.36995 18.4877 8.43117 18.3976 8.55148C18.3074 8.67251 18.2587 8.73373 18.2515 8.73518C18.2443 8.73734 18.2342 8.74815 18.2212 8.7676C18.2089 8.78776 18.1325 8.86809 17.9918 9.00856C17.8511 9.14903 17.7133 9.27401 17.5784 9.38352C17.4428 9.49373 17.3743 9.62916 17.3729 9.78981C17.3707 9.94973 17.3624 10.1306 17.348 10.3322C17.3335 10.534 17.3065 10.7519 17.2668 10.986C17.2271 11.2201 17.1658 11.4848 17.0829 11.7802C16.9999 12.0755 16.8989 12.3637 16.7799 12.6446C16.6609 12.9256 16.5364 13.1777 16.4066 13.401C16.2767 13.6244 16.1577 13.8135 16.0495 13.9683C15.9413 14.1232 15.8313 14.2691 15.7195 14.406C15.6077 14.5428 15.4663 14.697 15.2953 14.8684C15.1236 15.0392 15.0299 15.1328 15.014 15.1494C14.9974 15.1652 14.9267 15.2243 14.8019 15.3266C14.6778 15.4296 14.5444 15.5326 14.4015 15.6356C14.2594 15.7379 14.1288 15.8233 14.0098 15.8917C13.8908 15.9602 13.7472 16.0383 13.5792 16.1262C13.4118 16.2148 13.2307 16.2969 13.036 16.3726C12.8412 16.4482 12.6356 16.5185 12.4192 16.5833C12.2028 16.6481 11.9936 16.6986 11.7916 16.7346C11.5896 16.7706 11.3606 16.8012 11.1045 16.8264L10.7204 16.8642V16.8696H10.017V16.8642L9.92506 16.8588C9.86375 16.8552 9.81325 16.8516 9.77357 16.848C9.7339 16.8444 9.58421 16.8246 9.32452 16.7886C9.06482 16.7526 8.86104 16.7166 8.71315 16.6805C8.56528 16.6445 8.34525 16.5761 8.0531 16.4752C7.76094 16.3744 7.51099 16.2724 7.30324 16.1694C7.09621 16.0671 6.96636 16.0023 6.91369 15.9749C6.86176 15.9483 6.80333 15.9151 6.7384 15.8755L6.64102 15.8161L6.63886 15.8128L6.63561 15.8107L6.63236 15.8085L6.6302 15.8053L6.61938 15.7999L6.60856 15.7945L6.6064 15.7912L6.60314 15.7891L6.5999 15.7869L6.59773 15.7837L6.59558 15.7804L6.59232 15.7783H6.58691V15.7567L6.59773 15.7588L6.60856 15.7621L6.65725 15.7675C6.68971 15.7711 6.77808 15.7765 6.92235 15.7837C7.06663 15.7909 7.21992 15.7909 7.38223 15.7837C7.54453 15.7765 7.71046 15.7603 7.87997 15.7351C8.0495 15.7098 8.24968 15.6666 8.48051 15.6054C8.71136 15.5441 8.92344 15.4714 9.11677 15.3871C9.30938 15.3021 9.44643 15.2387 9.52795 15.1969C9.60874 15.1559 9.73209 15.0795 9.89801 14.9679L10.1469 14.8004L10.149 14.7971L10.1523 14.795L10.1555 14.7928L10.1577 14.7896L10.1599 14.7863L10.1631 14.7842L10.1664 14.782L10.1685 14.7788L10.1793 14.7755L10.1902 14.7734L10.1923 14.7625L10.1956 14.7517L10.1988 14.7496L10.201 14.7463L10.1144 14.7409C10.0567 14.7373 10.0008 14.7337 9.9467 14.7301C9.89259 14.7265 9.80784 14.7103 9.69241 14.6815C9.577 14.6527 9.45257 14.6095 9.31911 14.5518C9.18566 14.4942 9.05581 14.4258 8.92957 14.3465C8.80333 14.2673 8.71207 14.2014 8.6558 14.1488C8.60026 14.0969 8.52812 14.0234 8.43939 13.9284C8.35139 13.8326 8.27492 13.7342 8.21 13.6334C8.14507 13.5325 8.08304 13.4162 8.0239 13.2843L7.93407 13.0877L7.92866 13.0715L7.92325 13.0553L7.92001 13.0445L7.91784 13.0336L7.93407 13.0358L7.9503 13.0391L8.06933 13.0553C8.14869 13.0661 8.27313 13.0697 8.44264 13.0661C8.61217 13.0625 8.72938 13.0553 8.79431 13.0445C8.85923 13.0336 8.89891 13.0264 8.91333 13.0228L8.93498 13.0174L8.96203 13.012L8.98908 13.0066L8.99124 13.0034L8.99449 13.0012L8.99775 12.9991L8.9999 12.9958L8.97826 12.9904L8.95662 12.985L8.93498 12.9796L8.91333 12.9742L8.89169 12.9688C8.87727 12.9652 8.85203 12.958 8.81595 12.9472C8.77988 12.9364 8.6825 12.8968 8.52379 12.8283C8.3651 12.7599 8.23886 12.6933 8.14507 12.6284C8.05106 12.5634 7.96142 12.4923 7.87672 12.4156C7.79232 12.3378 7.69964 12.2376 7.59864 12.1152C7.49765 11.9927 7.40748 11.8504 7.32812 11.6884C7.24878 11.5263 7.18926 11.3714 7.14958 11.2237C7.11006 11.0769 7.08399 10.9268 7.07169 10.7753L7.0522 10.5484L7.06302 10.5505L7.07384 10.5538L7.08466 10.5592L7.09548 10.5646L7.1063 10.57L7.11712 10.5754L7.28484 10.651C7.39666 10.7014 7.53552 10.7447 7.70143 10.7807C7.86735 10.8167 7.96654 10.8365 7.999 10.8401L8.04769 10.8455H8.14507L8.14292 10.8423L8.13966 10.8401L8.13642 10.8379L8.13425 10.8347L8.1321 10.8315L8.12884 10.8293L8.1256 10.8271L8.12343 10.8239L8.11261 10.8185L8.10179 10.8131L8.09964 10.8099L8.09638 10.8077L8.09314 10.8055L8.09097 10.8023L8.08015 10.7969L8.06933 10.7915L8.06718 10.7882C8.06501 10.7868 8.03399 10.7637 7.97411 10.7191C7.91495 10.6737 7.85292 10.615 7.788 10.543C7.72307 10.4709 7.65815 10.3953 7.59323 10.316C7.52818 10.2366 7.47025 10.1516 7.4201 10.0621C7.36961 9.97206 7.31622 9.85751 7.25995 9.71849C7.20441 9.58018 7.16221 9.44079 7.13335 9.30031C7.1045 9.15984 7.08827 9.02117 7.08466 8.8843C7.08106 8.74742 7.08466 8.63037 7.09548 8.53311C7.1063 8.43586 7.12794 8.326 7.1604 8.20354C7.19287 8.08108 7.23976 7.95142 7.30107 7.81454L7.39305 7.60924L7.39846 7.59303L7.40387 7.57682L7.40712 7.57466L7.40928 7.57142L7.41144 7.56817L7.41469 7.56601L7.41794 7.56817L7.4201 7.57142L7.42226 7.57466L7.42551 7.57682L7.42876 7.57898L7.43092 7.58222L7.43308 7.58546L7.43633 7.58762L7.44174 7.59843L7.44715 7.60924L7.45041 7.6114L7.45256 7.61464L7.59864 7.77672C7.69602 7.88478 7.81144 8.00544 7.94489 8.13871C8.07836 8.27198 8.15229 8.34113 8.16672 8.34618C8.18115 8.35194 8.19918 8.3685 8.22082 8.39588C8.24246 8.42254 8.3146 8.48629 8.43723 8.58714C8.55987 8.68799 8.72037 8.80506 8.91874 8.93832C9.11713 9.07159 9.33714 9.20306 9.5788 9.33273C9.82047 9.4624 10.0802 9.57945 10.3579 9.68391C10.6356 9.78837 10.8304 9.8568 10.9422 9.88922C11.054 9.92163 11.2452 9.96305 11.5157 10.0135C11.7862 10.0639 11.99 10.0963 12.127 10.1107C12.2641 10.1251 12.3579 10.1334 12.4084 10.1356L12.4841 10.1377L12.482 10.1215L12.4787 10.1053L12.4571 9.97026C12.4426 9.88022 12.4354 9.75415 12.4354 9.59206C12.4354 9.42998 12.4481 9.28051 12.4733 9.14363C12.4986 9.00676 12.5364 8.86809 12.5869 8.72762C12.6374 8.58714 12.6868 8.4744 12.7352 8.3894C12.7842 8.30512 12.8484 8.20895 12.9278 8.10089C13.0071 7.99283 13.1099 7.88118 13.2361 7.76592C13.3624 7.65065 13.5067 7.548 13.669 7.45796C13.8313 7.36791 13.981 7.29947 14.118 7.25265C14.2551 7.20583 14.3705 7.17521 14.4643 7.1608C14.5581 7.1464 14.6049 7.13811 14.6049 7.13595Z" fill="#555555"/>
<path d="M37.1395 18.002V6.64395H33.3775V5.40195H42.4135V6.64395H38.6515V18.002H37.1395ZM45.0205 18.002L42.4105 9.07395H43.9225L45.8125 16.076L47.9005 9.07395H49.6105L51.7165 16.076L53.5885 9.07395H55.1185L52.5085 18.002H50.9605L48.7645 10.64L46.5685 18.002H45.0205ZM57.7088 7.09395C57.4088 7.09395 57.1568 6.99795 56.9528 6.80595C56.7608 6.60195 56.6648 6.34995 56.6648 6.04995C56.6648 5.76195 56.7608 5.52195 56.9528 5.32995C57.1568 5.13795 57.4088 5.04195 57.7088 5.04195C57.9968 5.04195 58.2428 5.13795 58.4468 5.32995C58.6508 5.52195 58.7528 5.76195 58.7528 6.04995C58.7528 6.34995 58.6508 6.60195 58.4468 6.80595C58.2428 6.99795 57.9968 7.09395 57.7088 7.09395ZM56.9528 18.002V9.07395H58.4648V18.002H56.9528ZM64.6255 18.002C63.8095 18.002 63.1675 17.804 62.6995 17.408C62.2315 17.012 61.9975 16.298 61.9975 15.266V10.352H60.4495V9.07395H61.9975L62.1955 6.93195H63.5095V9.07395H66.1375V10.352H63.5095V15.266C63.5095 15.83 63.6235 16.214 63.8515 16.418C64.0795 16.61 64.4815 16.706 65.0575 16.706H65.9935V18.002H64.6255ZM71.5864 18.002C70.7704 18.002 70.1284 17.804 69.6604 17.408C69.1924 17.012 68.9584 16.298 68.9584 15.266V10.352H67.4104V9.07395H68.9584L69.1564 6.93195H70.4704V9.07395H73.0984V10.352H70.4704V15.266C70.4704 15.83 70.5844 16.214 70.8124 16.418C71.0404 16.61 71.4424 16.706 72.0184 16.706H72.9544V18.002H71.5864ZM78.7873 18.218C77.9353 18.218 77.1793 18.026 76.5193 17.642C75.8593 17.246 75.3373 16.7 74.9533 16.004C74.5813 15.308 74.3953 14.486 74.3953 13.538C74.3953 12.602 74.5813 11.786 74.9533 11.09C75.3253 10.382 75.8413 9.83595 76.5013 9.45195C77.1733 9.05595 77.9473 8.85795 78.8232 8.85795C79.6873 8.85795 80.4313 9.05595 81.0553 9.45195C81.6913 9.83595 82.1773 10.346 82.5133 10.982C82.8493 11.618 83.0173 12.302 83.0173 13.034C83.0173 13.166 83.0113 13.298 82.9993 13.43C82.9993 13.562 82.9993 13.712 82.9993 13.88H75.8893C75.9253 14.564 76.0813 15.134 76.3573 15.59C76.6453 16.034 76.9993 16.37 77.4193 16.598C77.8513 16.826 78.3073 16.94 78.7873 16.94C79.4113 16.94 79.9333 16.796 80.3533 16.508C80.7733 16.22 81.0793 15.83 81.2713 15.338H82.7653C82.5253 16.166 82.0633 16.856 81.3793 17.408C80.7073 17.948 79.8433 18.218 78.7873 18.218ZM78.7873 10.136C78.0673 10.136 77.4253 10.358 76.8613 10.802C76.3093 11.234 75.9913 11.87 75.9072 12.71H81.5233C81.4873 11.906 81.2113 11.276 80.6953 10.82C80.1793 10.364 79.5433 10.136 78.7873 10.136ZM85.0213 18.002V9.07395H86.3893L86.5153 10.784C86.7913 10.196 87.2113 9.72795 87.7753 9.37995C88.3393 9.03195 89.0353 8.85795 89.8633 8.85795V10.442H89.4493C88.9213 10.442 88.4353 10.538 87.9913 10.73C87.5473 10.91 87.1933 11.222 86.9293 11.666C86.6653 12.11 86.5333 12.722 86.5333 13.502V18.002H85.0213Z" fill="white"/>
</svg>
