<svg width="116" height="25" viewBox="0 0 116 25" fill="none" xmlns="http://www.w3.org/2000/svg">
<rect x="0.586914" y="0.00195312" width="24" height="24" rx="5" fill="#F2F1FA"/>
<path fill-rule="evenodd" clip-rule="evenodd" d="M6.58691 12.002C6.58691 9.60519 6.58691 8.40681 7.15804 7.54365C7.41308 7.15821 7.74317 6.82812 8.12862 6.57308C8.99177 6.00195 10.1902 6.00195 12.5869 6.00195C14.9837 6.00195 16.1821 6.00195 17.0452 6.57308C17.4307 6.82812 17.7607 7.15821 18.0158 7.54365C18.5869 8.40681 18.5869 9.60519 18.5869 12.002C18.5869 14.3987 18.5869 15.5971 18.0158 16.4603C17.7607 16.8457 17.4307 17.1758 17.0452 17.4308C16.1821 18.002 14.9837 18.002 12.5869 18.002C10.1902 18.002 8.99177 18.002 8.12862 17.4308C7.74317 17.1758 7.41308 16.8457 7.15804 16.4603C6.58691 15.5971 6.58691 14.3987 6.58691 12.002ZM15.6931 12.0021C15.6931 13.7177 14.3024 15.1084 12.5868 15.1084C10.8713 15.1084 9.48053 13.7177 9.48053 12.0021C9.48053 10.2866 10.8713 8.89583 12.5868 8.89583C14.3024 8.89583 15.6931 10.2866 15.6931 12.0021ZM12.5868 14.0574C13.7219 14.0574 14.6421 13.1372 14.6421 12.0021C14.6421 10.867 13.7219 9.94677 12.5868 9.94677C11.4517 9.94677 10.5315 10.867 10.5315 12.0021C10.5315 13.1372 11.4517 14.0574 12.5868 14.0574ZM15.8158 9.46965C16.2189 9.46965 16.5456 9.14287 16.5456 8.73977C16.5456 8.33667 16.2189 8.00989 15.8158 8.00989C15.4127 8.00989 15.0859 8.33667 15.0859 8.73977C15.0859 9.14287 15.4127 9.46965 15.8158 9.46965Z" fill="#555555"/>
<path d="M34.374 18.002V5.40195H35.886V18.002H34.374ZM38.4676 18.002V9.07395H39.8356L39.9256 10.676C40.2136 10.112 40.6276 9.66795 41.1676 9.34395C41.7076 9.01995 42.3196 8.85795 43.0036 8.85795C44.0596 8.85795 44.8996 9.18195 45.5236 9.82995C46.1596 10.466 46.4776 11.45 46.4776 12.782V18.002H44.9656V12.944C44.9656 11.084 44.1976 10.154 42.6616 10.154C41.8936 10.154 41.2516 10.436 40.7356 11C40.2316 11.552 39.9796 12.344 39.9796 13.376V18.002H38.4676ZM52.1884 18.218C51.1204 18.218 50.2324 17.948 49.5244 17.408C48.8164 16.868 48.4024 16.136 48.2824 15.212H49.8304C49.9264 15.68 50.1724 16.088 50.5684 16.436C50.9764 16.772 51.5224 16.94 52.2064 16.94C52.8424 16.94 53.3104 16.808 53.6104 16.544C53.9104 16.268 54.0604 15.944 54.0604 15.572C54.0604 15.032 53.8624 14.672 53.4664 14.492C53.0824 14.312 52.5364 14.15 51.8284 14.006C51.3484 13.91 50.8684 13.772 50.3884 13.592C49.9084 13.412 49.5064 13.16 49.1824 12.836C48.8584 12.5 48.6964 12.062 48.6964 11.522C48.6964 10.742 48.9844 10.106 49.5604 9.61395C50.1484 9.10995 50.9404 8.85795 51.9364 8.85795C52.8844 8.85795 53.6584 9.09795 54.2584 9.57795C54.8704 10.046 55.2244 10.718 55.3204 11.594H53.8264C53.7664 11.138 53.5684 10.784 53.2324 10.532C52.9084 10.268 52.4704 10.136 51.9184 10.136C51.3784 10.136 50.9584 10.25 50.6584 10.478C50.3704 10.706 50.2264 11.006 50.2264 11.378C50.2264 11.738 50.4124 12.02 50.7844 12.224C51.1684 12.428 51.6844 12.602 52.3324 12.746C52.8844 12.866 53.4064 13.016 53.8984 13.196C54.4024 13.364 54.8104 13.622 55.1224 13.97C55.4464 14.306 55.6084 14.798 55.6084 15.446C55.6204 16.25 55.3144 16.916 54.6904 17.444C54.0784 17.96 53.2444 18.218 52.1884 18.218ZM60.8921 18.002C60.0761 18.002 59.4341 17.804 58.9661 17.408C58.4981 17.012 58.2641 16.298 58.2641 15.266V10.352H56.7161V9.07395H58.2641L58.4621 6.93195H59.7761V9.07395H62.4041V10.352H59.7761V15.266C59.7761 15.83 59.8901 16.214 60.1181 16.418C60.3461 16.61 60.7481 16.706 61.3241 16.706H62.2601V18.002H60.8921ZM67.295 18.218C66.551 18.218 65.933 18.092 65.441 17.84C64.949 17.588 64.583 17.252 64.343 16.832C64.103 16.412 63.983 15.956 63.983 15.464C63.983 14.552 64.331 13.85 65.027 13.358C65.723 12.866 66.671 12.62 67.871 12.62H70.283V12.512C70.283 11.732 70.079 11.144 69.671 10.748C69.263 10.34 68.717 10.136 68.033 10.136C67.445 10.136 66.935 10.286 66.503 10.586C66.083 10.874 65.819 11.3 65.711 11.864H64.163C64.223 11.216 64.439 10.67 64.811 10.226C65.195 9.78195 65.669 9.44595 66.233 9.21795C66.797 8.97795 67.397 8.85795 68.033 8.85795C69.281 8.85795 70.217 9.19395 70.841 9.86595C71.477 10.526 71.795 11.408 71.795 12.512V18.002H70.445L70.355 16.4C70.103 16.904 69.731 17.336 69.239 17.696C68.759 18.044 68.111 18.218 67.295 18.218ZM67.529 16.94C68.105 16.94 68.597 16.79 69.005 16.49C69.425 16.19 69.743 15.8 69.959 15.32C70.175 14.84 70.283 14.336 70.283 13.808V13.79H67.997C67.109 13.79 66.479 13.946 66.107 14.258C65.747 14.558 65.567 14.936 65.567 15.392C65.567 15.86 65.735 16.238 66.071 16.526C66.419 16.802 66.905 16.94 67.529 16.94ZM77.5913 15.194C77.0873 15.194 76.6253 15.128 76.2053 14.996L75.3053 15.842C75.4373 15.938 75.5993 16.022 75.7913 16.094C75.9953 16.154 76.2833 16.214 76.6553 16.274C77.0273 16.322 77.5493 16.376 78.2213 16.436C79.4213 16.52 80.2793 16.796 80.7953 17.264C81.3113 17.732 81.5693 18.344 81.5693 19.1C81.5693 19.616 81.4253 20.108 81.1373 20.576C80.8613 21.044 80.4293 21.428 79.8413 21.728C79.2653 22.028 78.5213 22.178 77.6093 22.178C76.8053 22.178 76.0913 22.07 75.4673 21.854C74.8433 21.65 74.3573 21.332 74.0093 20.9C73.6613 20.48 73.4873 19.946 73.4873 19.298C73.4873 18.962 73.5773 18.596 73.7573 18.2C73.9373 17.816 74.2733 17.45 74.7653 17.102C74.5013 16.994 74.2733 16.88 74.0813 16.76C73.9013 16.628 73.7333 16.484 73.5773 16.328V15.914L75.1073 14.402C74.3993 13.802 74.0453 13.01 74.0453 12.026C74.0453 11.438 74.1833 10.904 74.4593 10.424C74.7353 9.94395 75.1373 9.56595 75.6653 9.28995C76.1933 9.00195 76.8353 8.85795 77.5913 8.85795C78.1073 8.85795 78.5753 8.92995 78.9953 9.07395H82.2893V10.208L80.6153 10.28C80.9633 10.784 81.1373 11.366 81.1373 12.026C81.1373 12.614 80.9933 13.148 80.7053 13.628C80.4293 14.108 80.0273 14.492 79.4993 14.78C78.9833 15.056 78.3473 15.194 77.5913 15.194ZM77.5913 13.952C78.2273 13.952 78.7313 13.79 79.1033 13.466C79.4873 13.13 79.6793 12.65 79.6793 12.026C79.6793 11.414 79.4873 10.946 79.1033 10.622C78.7313 10.286 78.2273 10.118 77.5913 10.118C76.9433 10.118 76.4273 10.286 76.0433 10.622C75.6713 10.946 75.4853 11.414 75.4853 12.026C75.4853 12.65 75.6713 13.13 76.0433 13.466C76.4273 13.79 76.9433 13.952 77.5913 13.952ZM74.9633 19.154C74.9633 19.754 75.2153 20.198 75.7193 20.486C76.2233 20.786 76.8533 20.936 77.6093 20.936C78.3533 20.936 78.9473 20.774 79.3913 20.45C79.8473 20.126 80.0753 19.694 80.0753 19.154C80.0753 18.77 79.9193 18.434 79.6073 18.146C79.2953 17.87 78.7193 17.708 77.8793 17.66C77.2193 17.612 76.6493 17.552 76.1693 17.48C75.6773 17.744 75.3533 18.026 75.1973 18.326C75.0413 18.638 74.9633 18.914 74.9633 19.154ZM83.9949 18.002V9.07395H85.3629L85.4889 10.784C85.7649 10.196 86.1849 9.72795 86.7489 9.37995C87.3129 9.03195 88.0089 8.85795 88.8369 8.85795V10.442H88.4229C87.8949 10.442 87.4089 10.538 86.9649 10.73C86.5209 10.91 86.1669 11.222 85.9029 11.666C85.6389 12.11 85.5069 12.722 85.5069 13.502V18.002H83.9949ZM93.504 18.218C92.76 18.218 92.142 18.092 91.65 17.84C91.158 17.588 90.792 17.252 90.552 16.832C90.312 16.412 90.192 15.956 90.192 15.464C90.192 14.552 90.54 13.85 91.236 13.358C91.932 12.866 92.88 12.62 94.08 12.62H96.492V12.512C96.492 11.732 96.288 11.144 95.88 10.748C95.472 10.34 94.926 10.136 94.242 10.136C93.654 10.136 93.144 10.286 92.712 10.586C92.292 10.874 92.028 11.3 91.92 11.864H90.372C90.432 11.216 90.648 10.67 91.02 10.226C91.404 9.78195 91.878 9.44595 92.442 9.21795C93.006 8.97795 93.606 8.85795 94.242 8.85795C95.49 8.85795 96.426 9.19395 97.05 9.86595C97.686 10.526 98.004 11.408 98.004 12.512V18.002H96.654L96.564 16.4C96.312 16.904 95.94 17.336 95.448 17.696C94.968 18.044 94.32 18.218 93.504 18.218ZM93.738 16.94C94.314 16.94 94.806 16.79 95.214 16.49C95.634 16.19 95.952 15.8 96.168 15.32C96.384 14.84 96.492 14.336 96.492 13.808V13.79H94.206C93.318 13.79 92.688 13.946 92.316 14.258C91.956 14.558 91.776 14.936 91.776 15.392C91.776 15.86 91.944 16.238 92.28 16.526C92.628 16.802 93.114 16.94 93.738 16.94ZM100.272 18.002V9.07395H101.64L101.748 10.37C102.036 9.88995 102.42 9.51795 102.9 9.25395C103.38 8.98995 103.92 8.85795 104.52 8.85795C105.228 8.85795 105.834 9.00195 106.338 9.28995C106.854 9.57795 107.25 10.016 107.526 10.604C107.838 10.064 108.264 9.63795 108.804 9.32595C109.356 9.01395 109.95 8.85795 110.586 8.85795C111.654 8.85795 112.506 9.18195 113.142 9.82995C113.778 10.466 114.096 11.45 114.096 12.782V18.002H112.602V12.944C112.602 12.02 112.416 11.324 112.044 10.856C111.672 10.388 111.138 10.154 110.442 10.154C109.722 10.154 109.122 10.436 108.642 11C108.174 11.552 107.94 12.344 107.94 13.376V18.002H106.428V12.944C106.428 12.02 106.242 11.324 105.87 10.856C105.498 10.388 104.964 10.154 104.268 10.154C103.56 10.154 102.966 10.436 102.486 11C102.018 11.552 101.784 12.344 101.784 13.376V18.002H100.272Z" fill="white"/>
</svg>
