<svg width="104" height="25" viewBox="0 0 104 25" fill="none" xmlns="http://www.w3.org/2000/svg">
<rect x="0.586914" y="0.00195312" width="24" height="24" rx="5" fill="#F2F1FA"/>
<path d="M12.8793 16.6552L10.1711 16.6046C9.29429 16.587 8.41528 16.6222 7.55564 16.4395C6.24793 16.1665 6.15529 14.8279 6.05835 13.705C5.92477 12.1265 5.97648 10.5193 6.22856 8.95388C6.37086 8.07553 6.93088 7.55142 7.79693 7.49438C10.7205 7.2874 13.6635 7.31193 16.5806 7.4085C16.8887 7.41735 17.1989 7.46573 17.5027 7.52081C19.0022 7.78942 19.0388 9.30635 19.136 10.5833C19.2329 11.8735 19.192 13.1702 19.0067 14.4516C18.858 15.5125 18.5736 16.4022 17.3734 16.4881C15.8695 16.6004 14.4002 16.6908 12.8921 16.6621C12.8922 16.6552 12.8836 16.6552 12.8793 16.6552ZM11.2871 13.9693C12.4204 13.3043 13.5321 12.6505 14.6588 11.99C13.5235 11.325 12.4139 10.6712 11.2871 10.0107V13.9693Z" fill="#555555"/>
<path d="M37.131 18.002V13.214L33.027 5.40195H34.737L37.887 11.774L41.037 5.40195H42.729L38.643 13.214V18.002H37.131ZM46.8364 18.218C45.9964 18.218 45.2404 18.026 44.5684 17.642C43.8964 17.258 43.3624 16.718 42.9664 16.022C42.5824 15.314 42.3904 14.486 42.3904 13.538C42.3904 12.59 42.5884 11.768 42.9844 11.072C43.3804 10.364 43.9144 9.81795 44.5864 9.43395C45.2704 9.04995 46.0324 8.85795 46.8724 8.85795C47.7124 8.85795 48.4684 9.04995 49.1404 9.43395C49.8124 9.81795 50.3404 10.364 50.7244 11.072C51.1204 11.768 51.3184 12.59 51.3184 13.538C51.3184 14.486 51.1204 15.314 50.7244 16.022C50.3284 16.718 49.7884 17.258 49.1044 17.642C48.4324 18.026 47.6764 18.218 46.8364 18.218ZM46.8364 16.922C47.3524 16.922 47.8324 16.796 48.2764 16.544C48.7204 16.292 49.0804 15.914 49.3564 15.41C49.6324 14.906 49.7704 14.282 49.7704 13.538C49.7704 12.794 49.6324 12.17 49.3564 11.666C49.0924 11.162 48.7384 10.784 48.2944 10.532C47.8504 10.28 47.3764 10.154 46.8724 10.154C46.3564 10.154 45.8764 10.28 45.4324 10.532C44.9884 10.784 44.6284 11.162 44.3524 11.666C44.0764 12.17 43.9384 12.794 43.9384 13.538C43.9384 14.282 44.0764 14.906 44.3524 15.41C44.6284 15.914 44.9824 16.292 45.4144 16.544C45.8584 16.796 46.3324 16.922 46.8364 16.922ZM56.6787 18.218C55.6227 18.218 54.7827 17.9 54.1587 17.264C53.5347 16.616 53.2227 15.626 53.2227 14.294V9.07395H54.7347V14.132C54.7347 15.992 55.4967 16.922 57.0207 16.922C57.8007 16.922 58.4427 16.646 58.9467 16.094C59.4627 15.53 59.7207 14.732 59.7207 13.7V9.07395H61.2327V18.002H59.8647L59.7567 16.4C59.4807 16.964 59.0667 17.408 58.5147 17.732C57.9747 18.056 57.3627 18.218 56.6787 18.218ZM66.7635 18.002V6.64395H63.0015V5.40195H72.0375V6.64395H68.2755V18.002H66.7635ZM76.1553 18.218C75.0993 18.218 74.2593 17.9 73.6353 17.264C73.0113 16.616 72.6993 15.626 72.6993 14.294V9.07395H74.2113V14.132C74.2113 15.992 74.9733 16.922 76.4973 16.922C77.2773 16.922 77.9193 16.646 78.4233 16.094C78.9393 15.53 79.1973 14.732 79.1973 13.7V9.07395H80.7093V18.002H79.3413L79.2333 16.4C78.9573 16.964 78.5433 17.408 77.9913 17.732C77.4513 18.056 76.8393 18.218 76.1553 18.218ZM87.9681 18.218C87.2361 18.218 86.5821 18.068 86.0061 17.768C85.4421 17.468 85.0101 17.048 84.7101 16.508L84.5661 18.002H83.1981V5.04195H84.7101V10.55C84.9981 10.118 85.4061 9.72795 85.9341 9.37995C86.4741 9.03195 87.1581 8.85795 87.9861 8.85795C88.8741 8.85795 89.6481 9.06195 90.3081 9.46995C90.9681 9.87795 91.4781 10.436 91.8381 11.144C92.2101 11.852 92.3961 12.656 92.3961 13.556C92.3961 14.456 92.2101 15.26 91.8381 15.968C91.4781 16.664 90.9621 17.216 90.2901 17.624C89.6301 18.02 88.8561 18.218 87.9681 18.218ZM87.8061 16.904C88.4061 16.904 88.9341 16.766 89.3901 16.49C89.8461 16.202 90.2061 15.806 90.4701 15.302C90.7341 14.798 90.8661 14.21 90.8661 13.538C90.8661 12.866 90.7341 12.278 90.4701 11.774C90.2061 11.27 89.8461 10.88 89.3901 10.604C88.9341 10.316 88.4061 10.172 87.8061 10.172C87.2061 10.172 86.6781 10.316 86.2221 10.604C85.7661 10.88 85.4061 11.27 85.1421 11.774C84.8781 12.278 84.7461 12.866 84.7461 13.538C84.7461 14.21 84.8781 14.798 85.1421 15.302C85.4061 15.806 85.7661 16.202 86.2221 16.49C86.6781 16.766 87.2061 16.904 87.8061 16.904ZM98.5148 18.218C97.6628 18.218 96.9068 18.026 96.2468 17.642C95.5868 17.246 95.0648 16.7 94.6808 16.004C94.3088 15.308 94.1228 14.486 94.1228 13.538C94.1228 12.602 94.3088 11.786 94.6808 11.09C95.0528 10.382 95.5688 9.83595 96.2288 9.45195C96.9008 9.05595 97.6748 8.85795 98.5508 8.85795C99.4148 8.85795 100.159 9.05595 100.783 9.45195C101.419 9.83595 101.905 10.346 102.241 10.982C102.577 11.618 102.745 12.302 102.745 13.034C102.745 13.166 102.739 13.298 102.727 13.43C102.727 13.562 102.727 13.712 102.727 13.88H95.6168C95.6528 14.564 95.8088 15.134 96.0848 15.59C96.3728 16.034 96.7268 16.37 97.1468 16.598C97.5788 16.826 98.0348 16.94 98.5148 16.94C99.1388 16.94 99.6608 16.796 100.081 16.508C100.501 16.22 100.807 15.83 100.999 15.338H102.493C102.253 16.166 101.791 16.856 101.107 17.408C100.435 17.948 99.5708 18.218 98.5148 18.218ZM98.5148 10.136C97.7948 10.136 97.1528 10.358 96.5888 10.802C96.0368 11.234 95.7188 11.87 95.6348 12.71H101.251C101.215 11.906 100.939 11.276 100.423 10.82C99.9068 10.364 99.2708 10.136 98.5148 10.136Z" fill="white"/>
</svg>
