<svg width="36" height="36" viewBox="0 0 36 36" fill="none" xmlns="http://www.w3.org/2000/svg">
<rect x="-0.00012207" width="36" height="36" rx="8" fill="#007E85" fill-opacity="0.1"/>
<path d="M8.99988 11.4201C8.99988 10.8428 9.20259 10.3666 9.60799 9.99148C10.0134 9.6163 10.5404 9.42871 11.1891 9.42871C11.8261 9.42871 12.3416 9.6134 12.7354 9.98282C13.1408 10.3638 13.3435 10.8602 13.3435 11.472C13.3435 12.0261 13.1466 12.4879 12.7528 12.8573C12.3474 13.2382 11.8145 13.4287 11.1543 13.4287H11.1369C10.4999 13.4287 9.98444 13.2382 9.59061 12.8573C9.19678 12.4763 8.99988 11.9972 8.99988 11.4201ZM9.22575 26.5716V15.0045H13.0829V26.5716H9.22575ZM15.22 26.5716H19.0771V20.1127C19.0771 19.7086 19.1234 19.3969 19.2161 19.1776C19.3783 18.7851 19.6244 18.4532 19.9545 18.182C20.2846 17.9107 20.6987 17.775 21.1968 17.775C22.4941 17.775 23.1427 18.6466 23.1427 20.3897V26.5716H26.9999V19.9395C26.9999 18.231 26.5945 16.9352 25.7837 16.0521C24.9728 15.169 23.9014 14.7274 22.5694 14.7274C21.0752 14.7274 19.9111 15.3681 19.0771 16.6495V16.6841H19.0597L19.0771 16.6495V15.0045H15.22C15.2431 15.3739 15.2547 16.5225 15.2547 18.4504C15.2547 20.3782 15.2431 23.0853 15.22 26.5716Z" fill="#0085FF"/>
</svg>
