<svg width="113" height="37" viewBox="0 0 113 37" fill="none" xmlns="http://www.w3.org/2000/svg">
<path d="M14.4396 0.0756836H15.4329C18.8811 0.151447 22.2732 1.55306 24.7094 4.0343C23.8099 4.9624 22.8916 5.85261 22.0108 6.78071C20.6427 5.53062 18.9936 4.56464 17.1945 4.22371C14.5333 3.65549 11.6661 4.16689 9.43594 5.70109C6.99968 7.31105 5.35052 10.0385 4.99445 12.9554C4.6009 15.8344 5.40674 18.8649 7.26204 21.0999C9.04239 23.2781 11.7598 24.6418 14.5708 24.7365C17.1945 24.8881 19.9306 24.0736 21.8421 22.2174C23.3414 20.9105 24.0348 18.9217 24.2596 16.9898C21.1487 16.9898 18.0378 17.0087 14.9269 16.9898V13.088H28.0265C28.7011 17.2739 27.7266 21.9901 24.5782 24.9828C22.4793 27.1041 19.5745 28.3542 16.6135 28.6005C13.7462 28.8846 10.7853 28.3353 8.23655 26.9337C5.18185 25.2858 2.74559 22.5015 1.5462 19.2248C0.421773 16.2132 0.403032 12.8039 1.4525 9.77335C2.40826 7.008 4.24483 4.56464 6.60613 2.85997C8.87372 1.17425 11.6286 0.24615 14.4396 0.0756836Z" fill="#555555"/>
<path d="M89.5894 1.06055H93.5998V28.1079C92.2692 28.1079 90.9199 28.1268 89.5894 28.089C89.6081 19.0921 89.5894 10.0763 89.5894 1.06055Z" fill="#555555"/>
<path d="M36.9464 10.4366C39.4202 9.96306 42.1001 10.4934 44.1428 11.9897C45.9981 13.3155 47.2912 15.399 47.6847 17.6719C48.1907 20.3046 47.5536 23.1836 45.8669 25.2671C44.0491 27.5968 41.0693 28.8468 38.1646 28.6574C35.5034 28.5059 32.9172 27.1611 31.343 24.964C29.5627 22.5396 29.1316 19.2061 30.1062 16.365C31.0807 13.3155 33.8355 10.9858 36.9464 10.4366ZM37.5086 14.0353C36.4967 14.3005 35.5596 14.8876 34.885 15.721C33.0672 17.9181 33.1796 21.4979 35.1848 23.5435C36.328 24.7178 38.0521 25.2671 39.6451 24.9451C41.1256 24.6799 42.4187 23.6761 43.1308 22.3502C44.3677 20.0963 44.0116 16.99 42.1188 15.2285C40.9007 14.0921 39.1203 13.6186 37.5086 14.0353Z" fill="#555555"/>
<path d="M56.8098 10.4365C59.6396 9.88722 62.7318 10.6827 64.8495 12.6905C68.2977 15.8157 68.6725 21.6684 65.7303 25.2671C63.9499 27.54 61.0639 28.7901 58.2153 28.6575C55.498 28.5818 52.8181 27.218 51.2064 24.9641C49.3886 22.4828 48.995 19.0735 50.0257 16.1756C51.0565 13.2208 53.7551 10.9668 56.8098 10.4365ZM57.372 14.0353C56.36 14.3004 55.423 14.8876 54.7484 15.702C52.9493 17.8613 53.0242 21.3843 54.9545 23.4488C56.0977 24.68 57.878 25.2861 59.5272 24.9451C60.9889 24.661 62.3008 23.6761 63.0129 22.3503C64.231 20.0774 63.875 16.9711 61.9634 15.2096C60.7453 14.0731 58.965 13.6186 57.372 14.0353Z" fill="#555555"/>
<path d="M73.6596 11.5347C75.8148 10.1709 78.6821 9.79213 81.0059 10.9665C81.7368 11.2884 82.3365 11.8377 82.9174 12.387C82.9362 11.8756 82.9174 11.3453 82.9362 10.8149C84.1918 10.8339 85.4474 10.8149 86.7218 10.8339V27.5396C86.703 30.0587 86.0658 32.7293 84.2668 34.5666C82.299 36.5932 79.2818 37.2183 76.5644 36.8016C73.6596 36.3659 71.1297 34.2257 70.0052 31.5171C71.1297 30.9678 72.3103 30.5322 73.4722 30.0208C74.1281 31.574 75.4587 32.8998 77.1266 33.2029C78.7945 33.5059 80.7248 33.0892 81.8118 31.6876C82.9737 30.2481 82.9737 28.2783 82.9174 26.5168C82.0554 27.3691 81.0621 28.1267 79.8627 28.4109C77.2578 29.1495 74.3905 28.2404 72.3853 26.46C70.3613 24.6795 69.1619 21.9331 69.2744 19.2057C69.3306 16.1183 71.0547 13.1446 73.6596 11.5347ZM77.5389 13.9591C76.3957 14.1485 75.3275 14.7925 74.5967 15.6827C72.8351 17.8041 72.8351 21.1944 74.6154 23.2779C75.6274 24.5091 77.2578 25.1909 78.832 25.0205C80.3125 24.8689 81.6806 23.9219 82.4114 22.615C83.6483 20.3989 83.4422 17.3874 81.7743 15.4554C80.7435 14.2621 79.0944 13.675 77.5389 13.9591Z" fill="#555555"/>
<path d="M98.4131 12.5008C100.662 10.3794 104.129 9.65965 107.015 10.7772C109.751 11.8189 111.494 14.4517 112.375 17.1602C108.308 18.8648 104.26 20.5506 100.193 22.2552C100.756 23.3349 101.618 24.3198 102.78 24.7175C104.41 25.3047 106.359 25.0963 107.727 23.9978C108.271 23.5811 108.702 23.0318 109.114 22.5015C110.145 23.2023 111.175 23.8841 112.206 24.5849C110.744 26.801 108.289 28.3542 105.647 28.6004C102.723 28.9603 99.6125 27.8238 97.7197 25.513C94.6088 21.8764 94.9086 15.7775 98.4131 12.5008ZM100.418 16.0048C99.7812 16.9329 99.5188 18.0693 99.5375 19.1868C102.255 18.0504 104.972 16.914 107.69 15.7586C107.24 14.6979 106.153 14.0539 105.047 13.8834C103.267 13.5614 101.412 14.5274 100.418 16.0048Z" fill="#555555"/>
</svg>
