<svg width="126" height="29" viewBox="0 0 126 29" fill="none" xmlns="http://www.w3.org/2000/svg">
<path d="M21.0852 28.5194L12.8359 28.3668C10.1649 28.3138 7.48731 28.4199 4.8688 27.8694C0.885256 27.0469 0.603061 23.0142 0.30774 19.6315C-0.0991455 14.8758 0.0583587 10.0339 0.826192 5.31803C1.25933 2.67156 2.96562 1.09297 5.60382 0.920517C14.5094 0.297038 23.474 0.369999 32.3598 0.66184C33.2983 0.688371 34.2433 0.834291 35.1687 1.00011C39.7363 1.80931 39.8479 6.37927 40.1432 10.2263C40.4385 14.1131 40.3138 18.0198 39.7494 21.88C39.2966 25.077 38.4303 27.7566 34.7749 28.0153C30.1942 28.3536 25.7184 28.6255 21.1245 28.5393C21.1245 28.5194 21.0983 28.5194 21.0852 28.5194ZM16.2354 20.4274C19.6873 18.4243 23.0737 16.4544 26.5059 14.4646C23.0474 12.4615 19.6676 10.4916 16.2354 8.50175V20.4274Z" fill="#FF6161"/>
<path d="M106.311 24.8849C106.153 25.5349 106.016 26.0456 105.878 26.5895H102.649V1.41797H106.416V10.7039C106.613 10.4519 106.711 10.3457 106.796 10.233C107.44 9.33755 108.273 8.75387 109.349 8.52835C111.062 8.19008 112.526 8.95285 113.044 10.6177C113.379 11.6524 113.595 12.7601 113.622 13.8412C113.674 16.6204 113.635 19.3929 113.536 22.1721C113.497 23.0211 113.241 23.89 112.919 24.6859C111.863 27.3125 108.411 27.7105 106.698 25.4354C106.593 25.2961 106.495 25.1436 106.311 24.8849ZM106.495 17.9602V22.5634C106.495 23.3129 106.888 23.7706 107.63 23.943C108.358 24.1155 108.949 23.8303 109.244 23.1471C109.369 22.8619 109.494 22.5634 109.5 22.2649C109.572 19.4526 109.638 16.6403 109.658 13.8213C109.658 13.2973 109.533 12.7535 109.376 12.2427C109.08 11.3208 108.267 11.0488 107.466 11.5861C106.862 11.9973 106.495 12.581 106.495 13.357V17.9602ZM96.2568 8.88652H100.201V26.6028H97.1231C97.0115 25.9329 96.9 25.2431 96.7687 24.4338C96.5587 24.7456 96.434 24.9446 96.3028 25.1436C95.279 26.6359 93.8287 27.1467 92.1158 26.8747C90.6523 26.6359 89.7729 25.4951 89.576 23.6246C89.517 23.0675 89.4907 22.5037 89.4907 21.9465C89.4776 17.801 89.4907 13.6423 89.4907 9.49674V8.87326H93.4808V9.59623C93.4808 13.6025 93.4677 17.602 93.494 21.6083C93.494 22.1787 93.553 22.769 93.6515 23.3394C93.763 23.9231 94.183 24.1354 94.7474 24.0956C95.6596 24.0226 96.2896 23.3394 96.2896 22.4241V9.6692C96.2568 9.41052 96.2568 9.17173 96.2568 8.88652ZM69.1005 8.87326H73.0644V9.62276C73.0644 13.6091 73.0513 17.5888 73.0775 21.5618C73.0775 22.1323 73.13 22.7226 73.2481 23.2797C73.3991 23.9364 73.7797 24.1486 74.4294 24.0624C75.3285 23.9364 75.8732 23.3063 75.8798 22.3843V9.69573V8.89979H79.8239V26.6028H76.7592C76.6476 25.9461 76.536 25.2696 76.3916 24.4139C76.1948 24.7124 76.0832 24.8849 75.9716 25.064C74.9479 26.5829 73.5106 27.14 71.7584 26.8681C70.354 26.6558 69.4943 25.6079 69.2318 23.89C69.1596 23.3527 69.1071 22.8221 69.1071 22.2848C69.094 17.9801 69.094 13.6555 69.094 9.35082L69.1005 8.87326ZM67.0661 18.3317C67.053 18.9286 67.0136 19.5256 66.9808 20.1225C66.8298 21.9134 66.7577 24.4537 65.327 25.7604C64.4148 26.5829 63.2598 26.8814 62.0653 26.9212C61.5338 26.9344 60.9956 26.9344 60.4641 26.8615C57.9506 26.4768 56.7824 25.3558 56.3624 22.5634C55.8833 19.3398 55.8439 16.0632 56.4149 12.8397C57.0055 9.50337 59.04 8.32273 62.2032 8.54162C65.1564 8.75387 66.4755 10.7105 66.8233 13.4963C67.0136 15.0948 67.1055 16.7132 67.0661 18.3317ZM63.0497 17.7214C63.0497 16.5872 63.076 15.4464 63.0366 14.3122C63.0104 13.6555 62.9251 12.9922 62.7872 12.3422C62.6297 11.5927 62.1572 11.2345 61.5666 11.2478C60.9891 11.2611 60.5822 11.6192 60.3722 12.3157C60.3 12.5744 60.2212 12.8397 60.2212 13.0984C60.2212 14.876 60.2081 16.6602 60.195 18.4378C60.1819 20.096 59.9719 21.8338 60.4903 23.419C60.6478 23.9032 61.0547 24.1685 61.5863 24.1685C62.1047 24.1685 62.446 23.9099 62.6363 23.4456C62.7872 23.0874 62.9185 22.6961 62.9185 22.3113C62.9644 20.7858 63.0497 19.2536 63.0497 17.7214ZM50.5741 14.3851C50.9219 12.6672 51.2501 10.9891 51.611 9.30439C52.0638 7.16199 52.5692 5.01959 53.0154 2.87056C53.127 2.34656 53.337 2.22054 53.8292 2.23381C54.8858 2.2736 55.9621 2.24707 57.0908 2.24707C56.7233 3.61343 56.3624 4.91346 56.008 6.1936C54.8858 10.2131 53.7636 14.2458 52.6545 18.2786C52.5692 18.5903 52.5298 18.9286 52.5298 19.2603C52.5167 21.4623 52.5298 23.6578 52.5298 25.8599V26.5762H48.6775C48.6644 26.3773 48.6381 26.1783 48.6381 25.9793C48.6381 24.7323 48.5397 23.4787 48.6513 22.245C48.9335 19.2801 48.0016 16.5541 47.2468 13.7948C46.2493 10.1468 45.2387 6.48544 44.2411 2.83739C44.1886 2.66494 44.169 2.47922 44.1165 2.26697H48.0475C48.8744 6.29309 49.7078 10.3192 50.5741 14.3851ZM125.946 19.0082H119.305C119.377 20.3547 119.403 21.6348 119.541 22.9017C119.64 23.7838 120.119 24.1619 120.873 24.1685C121.661 24.1818 122.12 23.7838 122.304 22.9083C122.363 22.6231 122.402 22.3379 122.429 22.046C122.455 21.7874 122.468 21.5088 122.488 21.1373C123.61 21.197 124.706 21.2634 125.789 21.3098C126.419 23.2001 125.284 25.6278 123.374 26.3773C121.871 26.9742 120.329 26.9742 118.793 26.5166C117.658 26.1783 116.811 25.4487 116.43 24.3277C116.076 23.2797 115.741 22.1853 115.669 21.0909C115.472 18.3913 115.4 15.6653 115.807 12.9591C115.879 12.508 116.004 12.0769 116.142 11.6391C116.693 9.83502 117.894 8.72733 119.751 8.54162C120.762 8.44212 121.805 8.48192 122.803 8.65437C124.417 8.93959 125.277 10.1136 125.651 11.6524C125.822 12.3754 125.946 13.1183 125.973 13.8545C125.979 15.5459 125.946 17.224 125.946 19.0082ZM122.173 16.6801C122.173 15.3469 122.186 14.0933 122.16 12.833C122.16 12.5346 122.048 12.2228 121.937 11.9376C121.713 11.3805 121.247 11.2279 120.69 11.2279C120.132 11.2279 119.777 11.5131 119.64 12.0238C119.22 13.556 119.357 15.1214 119.371 16.6933C120.375 16.6801 121.287 16.6801 122.173 16.6801Z" fill="#555555"/>
<path d="M82.8686 5.49732H78.9639V2.30029H90.6191V5.47742H86.7406V26.5764H82.8752L82.8686 5.49732Z" fill="#555555"/>
</svg>
