<svg width="36" height="36" viewBox="0 0 36 36" fill="none" xmlns="http://www.w3.org/2000/svg">
<rect x="-0.00012207" width="36" height="36" rx="8" fill="#007E85" fill-opacity="0.1"/>
<path d="M21.0269 10.7015V10.6982H21.8709L22.1793 10.7598C22.3849 10.7998 22.5716 10.8522 22.7393 10.9171C22.907 10.9819 23.0693 11.0575 23.2262 11.144C23.3831 11.2304 23.5254 11.3185 23.6531 11.4082C23.7797 11.4968 23.8933 11.5908 23.9939 11.6902C24.0935 11.7907 24.2488 11.8166 24.4598 11.768C24.6708 11.7194 24.898 11.6518 25.1414 11.5654C25.3849 11.479 25.6257 11.3817 25.8637 11.2736C26.1018 11.1656 26.2468 11.097 26.2987 11.0678C26.3496 11.0375 26.3766 11.0213 26.3799 11.0192L26.3831 11.0143L26.3993 11.0062L26.4156 10.9981L26.4318 10.99L26.448 10.9819L26.4513 10.977L26.4561 10.9738L26.461 10.9705L26.4643 10.9657L26.4805 10.9608L26.4967 10.9576L26.4935 10.9819L26.4886 11.0062L26.4805 11.0305L26.4724 11.0548L26.4643 11.071L26.4561 11.0872L26.448 11.1116C26.4426 11.1278 26.4372 11.1494 26.4318 11.1764C26.4264 11.2034 26.375 11.3115 26.2776 11.5006C26.1802 11.6897 26.0585 11.8815 25.9124 12.076C25.7663 12.2705 25.6354 12.4174 25.5196 12.5168C25.4028 12.6173 25.3254 12.6875 25.2875 12.7275C25.2497 12.7686 25.2037 12.8064 25.1496 12.841L25.0684 12.8945L25.0522 12.9026L25.0359 12.9107L25.0327 12.9156L25.0278 12.9188L25.023 12.922L25.0197 12.9269L25.0035 12.935L24.9873 12.9431L24.984 12.948L24.9791 12.9512L24.9743 12.9545L24.971 12.9593L24.9678 12.9642L24.9629 12.9674L24.958 12.9707L24.9548 12.9755H25.0359L25.4904 12.8783C25.7934 12.8134 26.0828 12.7351 26.3588 12.6433L26.797 12.4974L26.8457 12.4812L26.87 12.4731L26.8863 12.465L26.9025 12.4569L26.9187 12.4488L26.935 12.4406L26.9674 12.4358L26.9999 12.4325V12.465L26.9918 12.4682L26.9836 12.4731L26.9804 12.4779L26.9755 12.4812L26.9707 12.4844L26.9674 12.4893L26.9642 12.4941L26.9593 12.4974L26.9544 12.5006L26.9512 12.5055L26.948 12.5103L26.9431 12.5136L26.935 12.5298L26.9268 12.546L26.922 12.5492C26.9198 12.5525 26.8511 12.6443 26.7158 12.8248C26.5806 13.0063 26.5075 13.0982 26.4967 13.1003C26.4859 13.1036 26.4708 13.1198 26.4513 13.149C26.4329 13.1792 26.3182 13.2997 26.1072 13.5104C25.8962 13.7211 25.6895 13.9086 25.4872 14.0728C25.2838 14.2382 25.181 14.4413 25.1788 14.6823C25.1755 14.9222 25.1631 15.1934 25.1414 15.4959C25.1198 15.7985 25.0792 16.1254 25.0197 16.4765C24.9602 16.8277 24.8682 17.2248 24.7438 17.6679C24.6194 18.1109 24.4679 18.5431 24.2893 18.9645C24.1108 19.3859 23.9241 19.7641 23.7294 20.0991C23.5346 20.4341 23.3561 20.7177 23.1937 20.9501C23.0314 21.1824 22.8664 21.4012 22.6987 21.6065C22.531 21.8118 22.3189 22.0431 22.0625 22.3002C21.8049 22.5563 21.6643 22.6968 21.6405 22.7216C21.6156 22.7454 21.5096 22.834 21.3223 22.9875C21.1362 23.142 20.936 23.2965 20.7218 23.451C20.5086 23.6045 20.3128 23.7325 20.1342 23.8352C19.9557 23.9378 19.7404 24.055 19.4882 24.1869C19.2372 24.3198 18.9656 24.443 18.6735 24.5564C18.3813 24.6699 18.0729 24.7752 17.7483 24.8725C17.4237 24.9697 17.1099 25.0454 16.8069 25.0994C16.5039 25.1534 16.1604 25.1994 15.7763 25.2372L15.2001 25.2939V25.302H14.1451V25.2939L14.0071 25.2858C13.9151 25.2804 13.8394 25.275 13.7799 25.2696C13.7204 25.2642 13.4958 25.2345 13.1063 25.1805C12.7167 25.1264 12.4111 25.0724 12.1892 25.0184C11.9674 24.9643 11.6374 24.8617 11.1992 24.7104C10.7609 24.5591 10.386 24.4062 10.0744 24.2517C9.76381 24.0983 9.56904 24.001 9.49005 23.96C9.41214 23.92 9.32449 23.8703 9.22711 23.8108L9.08103 23.7217L9.0778 23.7168L9.07292 23.7136L9.06805 23.7104L9.0648 23.7055L9.04857 23.6974L9.03234 23.6893L9.02911 23.6844L9.02422 23.6812L9.01935 23.6779L9.01611 23.6731L9.01288 23.6682L9.00799 23.665H8.99988V23.6326L9.01611 23.6358L9.03234 23.6407L9.10538 23.6488C9.15407 23.6542 9.28663 23.6623 9.50303 23.6731C9.71946 23.6839 9.94938 23.6839 10.1928 23.6731C10.4363 23.6623 10.6852 23.6379 10.9395 23.6001C11.1938 23.5623 11.494 23.4975 11.8403 23.4056C12.1865 23.3138 12.5047 23.2046 12.7947 23.0782C13.0836 22.9507 13.2892 22.8556 13.4114 22.793C13.5326 22.7314 13.7176 22.6168 13.9665 22.4493L14.3398 22.1981L14.3431 22.1932L14.3479 22.19L14.3528 22.1868L14.3561 22.1819L14.3593 22.177L14.3642 22.1738L14.3691 22.1706L14.3723 22.1657L14.3885 22.1608L14.4047 22.1576L14.408 22.1414L14.4129 22.1252L14.4177 22.1219L14.421 22.1171L14.2911 22.109C14.2046 22.1036 14.1207 22.0982 14.0396 22.0928C13.9584 22.0874 13.8313 22.063 13.6581 22.0198C13.485 21.9766 13.2984 21.9118 13.0982 21.8253C12.898 21.7389 12.7032 21.6362 12.5139 21.5174C12.3245 21.3985 12.1876 21.2996 12.1032 21.2207C12.0199 21.1429 11.9117 21.0327 11.7786 20.8901C11.6466 20.7464 11.5319 20.5989 11.4345 20.4476C11.3371 20.2963 11.2441 20.1218 11.1553 19.9241L11.0206 19.6291L11.0125 19.6048L11.0044 19.5805L10.9995 19.5642L10.9963 19.548L11.0206 19.5513L11.045 19.5561L11.2235 19.5805C11.3425 19.5967 11.5292 19.6021 11.7835 19.5967C12.0378 19.5913 12.2136 19.5805 12.311 19.5642C12.4084 19.548 12.4679 19.5372 12.4895 19.5318L12.522 19.5237L12.5625 19.5156L12.6031 19.5075L12.6064 19.5027L12.6112 19.4994L12.6161 19.4962L12.6194 19.4913L12.5869 19.4832L12.5544 19.4751L12.522 19.467L12.4895 19.4589L12.457 19.4508C12.4354 19.4454 12.3975 19.4346 12.3434 19.4184C12.2893 19.4022 12.1433 19.3427 11.9052 19.2401C11.6672 19.1374 11.4778 19.0375 11.3371 18.9402C11.1961 18.8427 11.0616 18.736 10.9346 18.6209C10.808 18.5042 10.669 18.354 10.5175 18.1703C10.366 17.9866 10.2307 17.7732 10.1117 17.5301C9.99267 17.287 9.9034 17.0546 9.84388 16.8331C9.7846 16.6129 9.74549 16.3878 9.72704 16.1605L9.6978 15.8201L9.71403 15.8233L9.73027 15.8282L9.7465 15.8363L9.76273 15.8444L9.77896 15.8525L9.79519 15.8606L10.0468 15.9741C10.2145 16.0497 10.4228 16.1146 10.6717 16.1686C10.9205 16.2226 11.0693 16.2523 11.118 16.2577L11.191 16.2658H11.3371L11.3339 16.261L11.329 16.2577L11.3241 16.2545L11.3209 16.2496L11.3177 16.2448L11.3128 16.2415L11.3079 16.2383L11.3047 16.2334L11.2884 16.2253L11.2722 16.2172L11.269 16.2123L11.2641 16.2091L11.2592 16.2059L11.256 16.201L11.2397 16.1929L11.2235 16.1848L11.2203 16.1799C11.217 16.1778 11.1705 16.1432 11.0807 16.0762C10.9919 16.0081 10.8989 15.9201 10.8015 15.812C10.7041 15.7039 10.6067 15.5905 10.5093 15.4716C10.4118 15.3525 10.3249 15.225 10.2497 15.0907C10.1739 14.9557 10.0938 14.7838 10.0094 14.5753C9.92612 14.3678 9.86282 14.1587 9.81954 13.948C9.77626 13.7373 9.75192 13.5293 9.7465 13.324C9.74109 13.1187 9.7465 12.9431 9.76273 12.7972C9.77896 12.6514 9.81142 12.4866 9.86011 12.3029C9.9088 12.1192 9.97915 11.9247 10.0711 11.7194L10.2091 11.4114L10.2172 11.3871L10.2253 11.3628L10.2302 11.3595L10.2334 11.3547L10.2367 11.3498L10.2415 11.3466L10.2464 11.3498L10.2497 11.3547L10.2529 11.3595L10.2578 11.3628L10.2627 11.366L10.2659 11.3709L10.2691 11.3758L10.274 11.379L10.2821 11.3952L10.2902 11.4114L10.2951 11.4147L10.2983 11.4195L10.5175 11.6626C10.6635 11.8247 10.8367 12.0057 11.0368 12.2056C11.237 12.4055 11.3479 12.5093 11.3696 12.5168C11.3912 12.5255 11.4183 12.5503 11.4507 12.5914C11.4832 12.6314 11.5914 12.727 11.7754 12.8783C11.9593 13.0295 12.2001 13.2051 12.4976 13.405C12.7952 13.6049 13.1252 13.8022 13.4877 13.9967C13.8502 14.1912 14.2397 14.3667 14.6563 14.5234C15.0729 14.6801 15.3651 14.7828 15.5328 14.8314C15.7005 14.88 15.9873 14.9421 16.393 15.0178C16.7988 15.0934 17.1045 15.1421 17.3101 15.1637C17.5157 15.1853 17.6563 15.1977 17.7321 15.2009L17.8457 15.2042L17.8425 15.1799L17.8376 15.1556L17.8051 14.9529C17.7835 14.8179 17.7726 14.6288 17.7726 14.3857C17.7726 14.1425 17.7916 13.9183 17.8295 13.713C17.8673 13.5077 17.9241 13.2997 17.9999 13.089C18.0756 12.8783 18.1498 12.7092 18.2222 12.5817C18.2958 12.4552 18.3921 12.311 18.5111 12.1489C18.6302 11.9868 18.7844 11.8193 18.9737 11.6464C19.1631 11.4735 19.3795 11.3196 19.623 11.1845C19.8664 11.0494 20.091 10.9468 20.2965 10.8765C20.5021 10.8063 20.6753 10.7604 20.8159 10.7388C20.9566 10.7172 21.0269 10.7047 21.0269 10.7015Z" fill="#6CCAFF"/>
</svg>
